<?xml version="1.0" encoding="utf-8"?><svg version="1.1" id="Layer_1" xmlns="http://www.w3.org/2000/svg" xmlns:xlink="http://www.w3.org/1999/xlink" x="0px" y="0px" viewBox="0 0 122.88 115.18" style="enable-background:new 0 0 122.88 115.18" xml:space="preserve"><style type="text/css">.st0{fill-rule:evenodd;clip-rule:evenodd;}</style><g><path class="st0" d="M113.8,78.68l5.04,11.53c2.68,5.55,4.04,10.92,4.04,16.1v8.87H0v-8.87c0-5.13,1.35-10.49,4.06-16.1l5.04-11.53 H113.8L113.8,78.68z M57.84,71.09h7.19c0.08,0,0.14,0.06,0.14,0.14v2.21c0,0.08-0.06,0.14-0.14,0.14h-7.19 c-0.08,0-0.14-0.06-0.14-0.14v-2.21C57.71,71.16,57.77,71.09,57.84,71.09L57.84,71.09z M19.25,4.89h84.38 c2.29,0,4.16,1.87,4.16,4.16v55.47c0,2.29-1.87,4.16-4.16,4.16H19.25c-2.29,0-4.16-1.87-4.16-4.16V9.04 C15.1,6.76,16.97,4.89,19.25,4.89L19.25,4.89z M113.32,0v76.05H9.59V0H113.32L113.32,0z"/></g></svg>