<?xml version="1.0" encoding="utf-8"?><svg version="1.1" id="Layer_1" xmlns="http://www.w3.org/2000/svg" xmlns:xlink="http://www.w3.org/1999/xlink" x="0px" y="0px" viewBox="0 0 72.93 122.88" style="enable-background:new 0 0 72.93 122.88" xml:space="preserve"><style type="text/css">.st0{fill-rule:evenodd;clip-rule:evenodd;}</style><g><path class="st0" d="M10.94,0h51.04C68,0,72.93,4.93,72.93,10.94v100.99c0,6.02-4.93,10.94-10.94,10.94l-51.04,0 C4.93,122.88,0,117.95,0,111.94V10.95C0,4.93,4.93,0,10.94,0L10.94,0z M36.46,100.1c3.91,0,7.09,3.17,7.09,7.09 c0,3.91-3.18,7.09-7.09,7.09c-3.92,0-7.09-3.17-7.09-7.09C29.37,103.28,32.55,100.1,36.46,100.1L36.46,100.1z M25.17,8.86h22.59 c0.16,0,0.3,0.14,0.3,0.3v3.3c0,0.16-0.14,0.3-0.3,0.3H25.17c0,0,0,0,0,0c-0.16,0-0.3-0.13-0.3-0.3v0l0-3.3c0,0,0,0,0,0 C24.87,8.99,25,8.86,25.17,8.86L25.17,8.86L25.17,8.86L25.17,8.86z M9.65,21.53h53.63c0.98,0,1.78,0.81,1.78,1.78v70.01 c0,0.97-0.81,1.78-1.78,1.78H9.65c-0.97,0-1.78-0.8-1.78-1.78V23.3C7.87,22.33,8.67,21.53,9.65,21.53L9.65,21.53z"/></g></svg>